nColumns=19
nRows=92
DataType=double
version=3
OpenSimVersion=4.1
endheader
time	ground_force_calcn_r_vx	ground_force_calcn_r_vy	ground_force_calcn_r_vz	ground_force_calcn_r_px	ground_force_calcn_r_py	ground_force_calcn_r_pz	ground_force_calcn_r_mx	ground_force_calcn_r_my	ground_force_calcn_r_mz	ground_force_calcn_l_vx	ground_force_calcn_l_vy	ground_force_calcn_l_vz	ground_force_calcn_l_px	ground_force_calcn_l_py	ground_force_calcn_l_pz	ground_force_calcn_l_mx	ground_force_calcn_l_my	ground_force_calcn_l_mz
2.7	39.1694	48.1673	6.74628	0.378487	0	-0.249992	-0.800628	-0.984546	-0.137895	0	0	0	0	0	0	0	0	0
2.70833	16.8598	21.6264	5.08267	0.416022	0	-0.185647	-0.814638	-1.04495	-0.245586	0	0	0	0	0	0	0	0	0
2.71667	0	0	0	0	0	0	0	0	0	0	0	0	0	0	0	0	0	0
2.725	0	0	0	0	0	0	0	0	0	0	0	0	0	0	0	0	0	0
2.73333	0	0	0	0	0	0	0	0	0	0	0	0	0	0	0	0	0	0
2.74167	0	0	0	0	0	0	0	0	0	0	0	0	0	0	0	0	0	0
2.75	0	0	0	0	0	0	0	0	0	0	0	0	0	0	0	0	0	0
2.75833	0	0	0	0	0	0	0	0	0	0	0	0	0	0	0	0	0	0
2.76667	0	0	0	0	0	0	0	0	0	0	0	0	0	0	0	0	0	0
2.775	0	0	0	0	0	0	0	0	0	0	0	0	0	0	0	0	0	0
2.78333	0	0	0	0	0	0	0	0	0	-3.4381	15.8434	-2.2089	0.989271	0	-0.26131	0.0932902	-0.429899	0.0599367
2.79167	0	0	0	0	0	0	0	0	0	-16.095	46.4784	-4.21728	0.933824	0	-0.385255	0.245044	-0.707629	0.0642077
2.8	0	0	0	0	0	0	0	0	0	-45.4864	139.947	-3.71081	0.912206	0	-0.427691	0.448006	-1.37837	0.0365487
2.80833	0	0	0	0	0	0	0	0	0	-94.5459	351.306	3.61997	0.91363	0	-0.435861	0.619107	-2.30043	-0.0237044
2.81667	0	0	0	0	0	0	0	0	0	-148.268	684.758	19.6387	0.917894	0	-0.431066	0.686108	-3.1687	-0.0908774
2.825	0	0	0	0	0	0	0	0	0	-181.627	1024.86	36.9375	0.915263	0	-0.423192	0.647848	-3.65559	-0.131753
2.83333	0	0	0	0	0	0	0	0	0	-192.338	1239.81	40.2036	0.902285	0	-0.418986	0.563433	-3.6319	-0.117772
2.84167	0	0	0	0	0	0	0	0	0	-203.992	1332.73	23.8421	0.880047	0	-0.421961	0.506782	-3.31094	-0.0592315
2.85	0	0	0	0	0	0	0	0	0	-225.617	1390.44	5.79228	0.853846	0	-0.428495	0.514976	-3.17371	-0.013221
2.85833	0	0	0	0	0	0	0	0	0	-239.944	1473.36	10.7796	0.827162	0	-0.430832	0.596784	-3.66451	-0.0268109
2.86667	0	0	0	0	0	0	0	0	0	-224.384	1575.9	40.1866	0.798299	0	-0.428414	0.694597	-4.87832	-0.124401
2.875	0	0	0	0	0	0	0	0	0	-172.892	1657.2	70.063	0.765852	0	-0.427052	0.677345	-6.49248	-0.274489
2.88333	0	0	0	0	0	0	0	0	0	-99.0731	1689.01	79.9633	0.730751	0	-0.429745	0.467583	-7.97144	-0.377393
2.89167	0	0	0	0	0	0	0	0	0	-21.581	1672.64	73.0895	0.695092	0	-0.433973	0.114236	-8.85392	-0.38689
2.9	0	0	0	0	0	0	0	0	0	46.0964	1621.67	64.4748	0.661173	0	-0.435813	-0.25326	-8.9097	-0.354233
2.90833	0	0	0	0	0	0	0	0	0	104.375	1536.92	59.2912	0.628983	0	-0.43481	-0.551743	-8.12442	-0.313423
2.91667	0	0	0	0	0	0	0	0	0	161.273	1409.46	50.6985	0.595345	0	-0.433539	-0.756945	-6.61542	-0.237957
2.925	0	0	0	0	0	0	0	0	0	212.645	1238.64	33.8272	0.558717	0	-0.433617	-0.792554	-4.61655	-0.126078
2.93333	0	0	0	0	0	0	0	0	0	243.644	1036.15	12.9997	0.523145	0	-0.433843	-0.58262	-2.47772	-0.0310858
2.94167	0	0	0	0	0	0	0	0	0	246.383	817.378	-4.56374	0.493334	0	-0.432307	-0.172488	-0.57223	0.00319499
2.95	0	0	0	0	0	0	0	0	0	226.486	600.083	-16.1154	0.469261	0	-0.428267	0.30683	0.812958	-0.0218323
2.95833	0	0	0	0	0	0	0	0	0	190.588	403.455	-22.7862	0.448511	0	-0.422396	0.718101	1.52015	-0.0858542
2.96667	0	0	0	0	0	0	0	0	0	141.449	242.392	-25.2828	0.428027	0	-0.416974	0.915563	1.56895	-0.163649
2.975	0	0	0	0	0	0	0	0	0	87.0614	126.595	-23.1116	0.403448	0	-0.413529	0.799482	1.16251	-0.212233
2.98333	0	0	0	0	0	0	0	0	0	42.8317	57.9738	-17.0732	0.382591	0	-0.403011	0.409857	0.554752	-0.163373
2.99167	0	0	0	0	0	0	0	0	0	18.7941	27.1288	-10.0383	0.436535	0	-0.349332	-0.0872477	-0.12594	0.0466009
3	0	0	0	0	0	0	0	0	0	9.45874	16.152	-4.72387	0.621974	0	-0.255239	-0.553153	-0.944582	0.276255
3.00833	0	0	0	0	0	0	0	0	0	3.90456	10.676	-1.88554	0.86363	0	-0.16412	-0.733453	-2.00543	0.35419
3.01667	0	0	0	0	0	0	0	0	0	0	0	0	0	0	0	0	0	0
3.025	0	0	0	0	0	0	0	0	0	0	0	0	0	0	0	0	0	0
3.03333	0	0	0	0	0	0	0	0	0	0	0	0	0	0	0	0	0	0
3.04167	0	0	0	0	0	0	0	0	0	0	0	0	0	0	0	0	0	0
3.05	0	0	0	0	0	0	0	0	0	0	0	0	0	0	0	0	0	0
3.05833	0	0	0	0	0	0	0	0	0	0	0	0	0	0	0	0	0	0
3.06667	0	0	0	0	0	0	0	0	0	0	0	0	0	0	0	0	0	0
3.075	-3.96406	19.1431	-2.55455	0.804366	0	-0.182761	-0.28431	1.37298	-0.183218	0	0	0	0	0	0	0	0	0
3.08333	-16.4365	46.3279	-7.0271	0.839092	0	-0.288748	-0.654841	1.84573	-0.279964	0	0	0	0	0	0	0	0	0
3.09167	-45.1341	122.578	-12.9293	0.876816	0	-0.327911	-0.680753	1.84883	-0.195011	0	0	0	0	0	0	0	0	0
3.1	-86.0956	297.481	-16.7186	0.899083	0	-0.336875	-0.34968	1.20823	-0.067903	0	0	0	0	0	0	0	0	0
3.10833	-123.657	588.358	-13.1391	0.904605	0	-0.338259	0.0465889	-0.221669	0.00495026	0	0	0	0	0	0	0	0	0
3.11667	-145.096	914.55	-0.156091	0.898983	0	-0.33774	0.339575	-2.14037	0.000365307	0	0	0	0	0	0	0	0	0
3.125	-160.606	1153.46	15.5223	0.885661	0	-0.336885	0.555891	-3.99237	-0.0537262	0	0	0	0	0	0	0	0	0
3.13333	-187.983	1283.29	21.8353	0.865714	0	-0.337019	0.766857	-5.23506	-0.089075	0	0	0	0	0	0	0	0	0
3.14167	-215.711	1374.34	14.3248	0.83971	0	-0.338645	0.874285	-5.57023	-0.0580587	0	0	0	0	0	0	0	0	0
3.15	-217.964	1480.38	1.84821	0.810093	0	-0.339834	0.73633	-5.00103	-0.00624366	0	0	0	0	0	0	0	0	0
3.15833	-190.58	1596.88	-4.50377	0.77981	0	-0.338929	0.440328	-3.68954	0.0104058	0	0	0	0	0	0	0	0	0
3.16667	-144.954	1690.07	-4.18777	0.750091	0	-0.336836	0.161606	-1.88421	0.00466884	0	0	0	0	0	0	0	0	0
3.175	-90.1504	1732.27	-4.68721	0.720429	0	-0.335123	-0.00585966	0.112595	-0.000304663	0	0	0	0	0	0	0	0	0
3.18333	-31.6654	1714.5	-9.61166	0.689553	0	-0.334131	-0.0366715	1.98555	-0.0111312	0	0	0	0	0	0	0	0	0
3.19167	26.4412	1645.23	-14.7447	0.656494	0	-0.333049	0.0552618	3.43852	-0.0308163	0	0	0	0	0	0	0	0	0
3.2	83.1383	1539.73	-14.8233	0.621913	0	-0.331278	0.229509	4.25055	-0.0409209	0	0	0	0	0	0	0	0	0
3.20833	138.545	1407.66	-9.33355	0.587431	0	-0.329391	0.426848	4.3369	-0.028756	0	0	0	0	0	0	0	0	0
3.21667	187.019	1251.44	-0.990441	0.553918	0	-0.32824	0.564478	3.77722	-0.00298945	0	0	0	0	0	0	0	0	0
3.225	220.005	1072.72	7.84685	0.521604	0	-0.327831	0.572238	2.79017	0.0204098	0	0	0	0	0	0	0	0	0
3.23333	233.043	878.011	15.7025	0.490841	0	-0.327492	0.439678	1.65653	0.0296256	0	0	0	0	0	0	0	0	0
3.24167	226.521	676.759	21.0402	0.460794	0	-0.32654	0.212111	0.633707	0.0197017	0	0	0	0	0	0	0	0	0
3.25	202.966	482.627	22.5154	0.429364	0	-0.32473	-0.0436051	-0.103687	-0.0048372	0	0	0	0	0	0	0	0	0
3.25833	164.531	313.355	20.0468	0.396477	0	-0.322096	-0.261151	-0.497372	-0.0318192	0	0	0	0	0	0	0	0	0
3.26667	115.978	182.528	15.1342	0.368593	0	-0.31784	-0.389868	-0.613581	-0.0508745	0	0	0	0	0	0	0	0	0
3.275	68.2741	94.2049	9.95325	0.365613	0	-0.307838	-0.426071	-0.587896	-0.0621143	0	0	0	0	0	0	0	0	0
3.28333	33.2753	43.7444	6.0457	0.440132	0	-0.277846	-0.409698	-0.538599	-0.074437	0	0	0	0	0	0	0	0	0
3.29167	13.9746	20.0081	3.72456	0.668187	0	-0.199373	-0.377206	-0.540063	-0.100534	0	0	0	0	0	0	0	0	0
3.3	5.19872	10.3408	2.52575	0.90315	0	-0.0721689	-0.316104	-0.628761	-0.153576	0	0	0	0	0	0	0	0	0
3.30833	0	0	0	0	0	0	0	0	0	0	0	0	0	0	0	0	0	0
3.31667	0	0	0	0	0	0	0	0	0	0	0	0	0	0	0	0	0	0
3.325	0	0	0	0	0	0	0	0	0	0	0	0	0	0	0	0	0	0
3.33333	0	0	0	0	0	0	0	0	0	0	0	0	0	0	0	0	0	0
3.34167	0	0	0	0	0	0	0	0	0	0	0	0	0	0	0	0	0	0
3.35	0	0	0	0	0	0	0	0	0	0	0	0	0	0	0	0	0	0
3.35833	0	0	0	0	0	0	0	0	0	0	0	0	0	0	0	0	0	0
3.36667	0	0	0	0	0	0	0	0	0	-3.57192	15.4408	-2.17967	0.72838	0	-0.217117	0.0837523	-0.362046	0.0511077
3.375	0	0	0	0	0	0	0	0	0	-14.8791	39.2821	-5.07264	0.826171	0	-0.354041	0.228122	-0.602264	0.0777725
3.38333	0	0	0	0	0	0	0	0	0	-43.4407	113.929	-7.38044	0.895754	0	-0.408622	0.401038	-1.05177	0.0681351
3.39167	0	0	0	0	0	0	0	0	0	-91.031	290.173	-5.68317	0.922118	0	-0.420371	0.512071	-1.63229	0.0319692
3.4	0	0	0	0	0	0	0	0	0	-139.844	582.871	2.66222	0.930728	0	-0.417194	0.510616	-2.12826	-0.00972064
3.40833	0	0	0	0	0	0	0	0	0	-163.345	901.424	13.5374	0.926509	0	-0.410314	0.420015	-2.31786	-0.0348091
3.41667	0	0	0	0	0	0	0	0	0	-162.392	1118.91	15.3291	0.909665	0	-0.406341	0.311373	-2.14543	-0.0293923
3.425	0	0	0	0	0	0	0	0	0	-165.636	1224.88	2.14169	0.884168	0	-0.409204	0.246523	-1.82305	-0.00318757
3.43333	0	0	0	0	0	0	0	0	0	-185.832	1301.11	-12.6239	0.858673	0	-0.416013	0.25071	-1.75535	0.0170311
3.44167	0	0	0	0	0	0	0	0	0	-205.907	1406.45	-7.52962	0.837013	0	-0.41895	0.334986	-2.28813	0.0122498
3.45	0	0	0	0	0	0	0	0	0	-199.746	1532.53	20.0626	0.813516	0	-0.416764	0.451557	-3.46453	-0.0453546
3.45833	0	0	0	0	0	0	0	0	0	-158.144	1633.81	49.0898	0.783977	0	-0.415186	0.482014	-4.97977	-0.149623
